<svg width="113" height="86" viewBox="0 0 113 86" fill="none" xmlns="http://www.w3.org/2000/svg">
<path fill-rule="evenodd" clip-rule="evenodd" d="M34.8789 16.4046C35.2187 13.8881 33.0097 11.7444 31.9659 10.0667C23.3485 9.88031 28.786 3.39332 33.4467 5.05235C36.6266 6.18944 34.1021 8.20264 34.2235 9.43293C34.2963 10.2904 36.0683 13.1611 36.6509 13.8694C40.0008 17.8772 43.1322 12.8628 47.5016 12.4155C49.5407 12.2104 55.6093 14.1491 55.9734 6.48769C54.8811 5.61157 51.3127 4.32536 54.2742 2.16302C56.0462 0.858169 59.3476 1.32419 60.4885 2.46128C62.9402 4.92186 58.7164 5.42516 58.4494 7.02827C58.1581 8.83643 58.7893 11.4089 60.27 12.4155C62.7945 12.9001 64.8579 12.285 67.3339 12.6391C71.145 13.1797 73.2083 18.6415 79.1798 10.5514C80.9519 8.12808 78.5244 8.70594 79.0099 6.58089C79.7381 3.44924 86.9477 4.73545 86.4622 8.10944C86.2194 9.88031 84.3503 9.91759 82.117 10.1226C74.8104 18.9957 81.7529 18.3432 84.2532 20.5428C86.1223 22.1832 86.0495 24.9234 89.982 24.737C93.0163 24.5879 95.735 23.2085 98.0896 22.351C98.4295 15.9758 106.804 19.9091 104.692 23.5254C104.085 24.532 102.678 24.998 100.93 24.5693C98.6237 23.9914 99.5218 23.7118 97.1429 24.9048C87.4089 29.77 92.8221 28.8194 93.7445 35.5114C94.1814 38.6058 93.6717 40.5258 98.2596 40.6563C105.809 40.8799 103.503 38.9599 105.979 38.2889C109.571 37.3196 111.198 40.6749 109.887 42.6881C108.455 44.925 105.251 44.5522 103.964 42.0916C101.876 42.073 96.172 42.7067 94.934 43.6015C93.8659 44.3658 94.1329 45.7079 93.9144 46.9941C93.2105 51.0951 88.1857 51.878 93.5989 55.513C95.468 56.7805 97.1187 58.365 99.3276 59.3343C100.323 58.9988 104.668 57.2652 104.984 60.7883C105.154 62.671 103.139 64.6097 100.517 64.2741C98.9393 64.0691 98.478 63.3421 98.211 62.1304C97.8712 60.5273 97.9197 60.8069 96.3419 60.0427C89.0595 56.445 87.5545 56.4823 84.3988 59.7817C79.4711 64.9266 75.7328 62.932 78.84 68.5056C79.7381 70.1273 80.9033 71.6559 82.117 73.1658C84.6173 73.4454 87.6273 73.7623 86.1951 76.5584C85.4912 77.9192 82.4083 79.3732 80.0537 78.0497C79.2041 77.5837 78.7186 76.6143 79.1555 75.5518C79.7381 74.191 80.4906 74.8435 79.3983 73.3149C71.6547 62.4101 71.4605 69.6427 64.2025 69.7732C60.4156 69.8291 59.4689 69.624 58.765 72.5879C58.3523 74.3588 58.1581 76.7821 58.2795 78.6648C59.6146 79.4105 61.3138 79.8951 60.8769 81.6101C60.5856 82.7658 58.9592 83.6792 57.0415 83.6792C55.0753 83.6792 53.2789 82.7285 53.1333 81.3864C52.9634 79.8019 54.4441 79.3918 55.7307 78.6648C57.4056 66.5297 51.0457 70.5002 44.71 68.3005C42.1612 67.4244 40.3164 67.2753 38.5443 68.6174C33.6166 72.3829 37.5005 73.4268 36.4324 75.5145C36.1412 76.0738 35.243 76.7075 34.0536 76.838C31.5776 77.099 29.4657 75.6637 29.1987 74.191C28.786 71.9169 31.1406 71.7491 33.6894 71.5627C33.8351 71.2271 36.0683 66.5856 36.1412 66.5297C37.2092 65.4858 39.5153 65.7654 40.8504 63.4912C38.9084 63.8827 39.7823 64.6842 36.214 65.8586C36.1412 65.8027 36.0926 65.7095 36.0441 65.6536C35.2673 64.6656 35.3401 64.4605 34.3448 63.8827C29.3929 60.9934 32.7427 63.9386 27.6451 59.1106C25.8002 57.3584 24.1253 57.7499 21.2609 58.7005C19.5131 59.2784 17.377 60.1732 16.0662 61.012C15.4836 62.3541 15.7263 65.2435 11.7696 64.1623C10.0704 63.6963 8.2255 61.9254 9.29358 59.9308C10.7743 57.2093 13.7601 59.3902 14.901 59.2225C15.6778 59.1106 19.4646 57.0415 20.0957 56.6687C24.538 54.059 20.9696 51.3933 20.0472 47.3297C19.5617 45.2605 19.5617 43.8811 16.8429 43.1914C14.5854 42.6135 11.5026 42.5576 8.97801 42.6695C7.90993 43.4897 7.76429 44.6267 5.7495 44.7013C0.190646 44.8691 2.20543 36.6485 7.15742 39.0904C8.27405 39.631 8.07985 41.9611 15.5807 40.7867C19.5374 40.1716 20.1928 39.1836 20.3627 36.052C20.654 30.7207 26.8683 29.9751 16.9158 24.998C14.0999 23.5813 15.168 24.271 12.8377 24.737C10.9928 25.1098 9.75479 24.4574 9.2693 23.4322C7.52154 19.704 15.702 16.4232 15.9205 22.4815C26.9411 26.3588 24.3195 26.2096 29.4899 20.9343C30.9464 19.443 34.6119 18.4924 34.9032 16.4792L34.8789 16.4046ZM85.3698 19.4244C84.0833 18.3992 82.384 17.9704 80.6606 16.9452C80.5635 15.398 81.583 13.9067 82.3112 12.6578C83.5492 10.5327 84.1561 11.8749 86.4379 10.5887C89.9334 8.61274 88.0157 5.22011 85.03 3.98982C81.316 2.44264 76.9466 4.25079 77.2864 7.23332C77.5534 9.63798 78.9371 8.51953 76.7038 11.1106C72.4801 16.0131 72.5529 12.3036 68.2077 11.4089C65.8531 10.9242 63.45 11.4275 60.9982 11.1852C59.0805 6.00303 61.2895 7.2706 62.4547 5.38788C65.222 0.87681 55.7549 -2.21756 52.308 1.99526C50.1475 4.62361 52.8177 6.05895 54.2014 7.30788C53.9586 9.11604 53.0605 10.2345 52.0895 11.1479C48.4969 11.4089 47.9143 10.4209 44.4188 11.9122C43.0594 12.49 40.729 13.9254 39.1997 14.0931C37.8889 13.0306 37.5734 12.4527 36.6995 10.831C35.3158 8.20264 36.7966 9.26517 36.8208 7.00963C36.8451 4.06438 32.5971 2.49856 29.053 3.97118C26.3343 5.10827 24.2224 8.46361 27.4509 10.4955C29.4657 11.7444 30.5823 10.7191 31.7717 12.4341C35.3886 17.6349 31.3348 17.1129 28.4704 19.7599C27.1596 20.9716 26.1643 22.3696 24.805 23.5627C22.863 23.6186 18.3722 22.2951 17.7654 21.2512C16.6487 19.3498 16.6973 17.2621 12.2551 17.6908C6.57484 18.2687 5.33684 25.3894 11.2113 26.0232C15.7991 26.5265 13.1532 24.2896 18.2266 27.2162C20.7754 28.6702 21.4308 28.8939 19.8773 31.8951C16.94 37.6178 21.7707 39.9479 9.99754 39.4819C9.00228 38.3448 7.47299 36.723 4.19594 37.4687C-0.828883 38.6058 -0.270569 44.7572 4.12311 45.8011C7.1817 46.5281 8.73526 44.9809 10.1189 43.9184C11.9638 43.8438 14.0999 43.9184 15.7991 44.2726C18.0567 44.7572 17.9353 45.2605 18.2994 46.9941C19.6345 53.3506 23.2514 53.3506 17.4498 56.445C15.435 57.5262 15.872 57.8244 13.4688 57.3584C9.5606 56.6128 6.74476 58.7378 7.44872 61.8322C8.39542 65.9705 15.7991 67.2007 17.4255 63.0438C18.2751 60.8442 17.6925 61.6085 20.2414 60.5273C25.9701 58.0854 25.9216 59.4275 27.7179 61.2543C29.7327 63.2862 31.2863 63.8454 34.1507 65.2994C34.3206 67.2194 33.6652 68.7293 32.6214 70.1087C30.2425 70.7798 28.2762 70.6866 27.6208 72.9048C25.8245 78.9258 40.7048 80.8458 37.9617 72.9235C37.4763 71.5068 39.661 69.2512 41.0203 69.0089C42.7195 68.6734 45.2198 70.0714 47.4045 70.3883C52.0167 71.0407 54.784 68.8784 54.1528 77.9006C49.2737 79.8206 51.2399 85.0213 57.0658 85.0213C62.7217 85.0027 64.8579 80.1188 60.003 77.9006C60.0273 76.4839 59.6874 71.5627 61.775 71.2271L63.1587 71.0967C70.441 70.873 67.4552 70.2206 72.4801 68.5802C74.155 69.2885 75.0774 70.4629 76.1212 71.7305C77.869 73.7809 78.0632 73.1658 77.4078 75.5332C76.4125 79.1308 81.5102 80.8831 85.3213 79.1681C88.5012 77.7141 89.9091 73.5759 85.4669 72.2338C82.1656 71.2458 83.2822 72.3456 81.4859 69.5308C77.5777 63.398 80.0294 65.8772 84.7144 61.6458C85.6126 60.8256 86.098 60.1732 86.8263 59.4089C87.7244 58.4955 88.3313 58.4582 89.9334 58.8683C91.2685 59.2038 95.5894 61.0679 96.0749 61.6085C96.8274 62.4473 96.2933 63.2116 97.5313 64.3673C102.629 69.0835 111.246 60.285 104.231 57.5821C100.371 56.0908 101.124 58.9802 97.3614 56.5196C90.1519 51.7662 93.3076 52.5491 95.1039 48.9887C96.439 46.3603 94.1814 44.7759 98.3324 44.0116C104.668 42.8372 102.411 44.1234 105.008 45.1114C108.795 46.5467 112.023 43.9184 112.072 41.2155C112.12 38.4194 109.183 35.9401 105.372 37.0399C103.454 37.5805 102.629 40.6003 96.1234 38.9786C95.3466 37.3382 95.6136 35.0081 94.8854 33.0695C94.1572 31.1681 92.288 29.6955 94.0115 28.3347C100.541 23.1712 102.411 28.2042 105.809 24.737C108.989 21.4935 103.988 16.1995 98.915 18.045C96.1962 19.0329 97.2158 21.1766 95.468 22.0155C94.0601 22.6865 90.6617 23.5813 88.574 23.3576C87.2632 22.2764 86.9719 20.7665 85.3698 19.4617V19.4244Z" fill="#40F7FF" fill-opacity="0.44"/>
<path fill-rule="evenodd" clip-rule="evenodd" d="M76.4884 49.4544C81.3676 47.7954 81.1005 52.1946 77.5565 53.6486C73.0415 55.494 71.3665 51.2067 76.4884 49.4544ZM76.6341 47.9259C70.1285 49.2308 69.7159 56.687 77.071 55.2331C83.5037 53.9655 83.8193 46.4906 76.6341 47.9259Z" fill="#40F7FF" fill-opacity="0.44"/>
<path fill-rule="evenodd" clip-rule="evenodd" d="M76.4633 39.463C74.2058 36.5737 77.8955 33.2929 80.4928 34.169C83.1144 35.0451 81.0997 40.19 76.4633 39.463ZM78.7693 32.771C72.5308 33.908 72.1667 41.849 78.478 40.861C80.7841 40.5068 82.8231 38.7919 83.2601 36.7601C83.7941 34.2622 81.8279 32.1931 78.7451 32.7523L78.7693 32.771Z" fill="#40F7FF" fill-opacity="0.44"/>
<path fill-rule="evenodd" clip-rule="evenodd" d="M73.307 26.9548C67.9909 28.1106 64.7625 24.4383 67.1899 23.1148C69.7144 21.7541 75.1519 24.1028 73.307 26.9548ZM67.6268 21.6049C60.9271 23.1335 66.7287 29.9374 73.04 28.4088C78.8659 27.0108 73.7197 20.2069 67.6268 21.6049Z" fill="#40F7FF" fill-opacity="0.44"/>
<path fill-rule="evenodd" clip-rule="evenodd" d="M49.1553 18.5107C54.2529 17.4109 54.3985 21.7169 49.6893 22.6117C44.7373 23.5624 44.0091 19.6292 49.1553 18.5107ZM49.398 17.0754C42.237 17.9515 41.8729 24.8113 49.3737 24.0284C56.2677 23.3014 56.9474 16.162 49.398 17.0754Z" fill="#40F7FF" fill-opacity="0.44"/>
<path fill-rule="evenodd" clip-rule="evenodd" d="M57.018 56.5192C62.0913 55.3821 63.475 59.3899 58.6686 60.3778C53.5467 61.4403 52.0174 57.6563 57.018 56.5192ZM57.0908 55.1397C49.0802 56.5565 51.7504 63.0435 58.9356 61.6827C66.1695 60.3219 64.0333 53.9095 57.0908 55.1397Z" fill="#40F7FF" fill-opacity="0.44"/>
<path fill-rule="evenodd" clip-rule="evenodd" d="M35.0968 33.1997C32.9363 36.4619 28.6154 34.5419 30.6545 30.8323C32.6208 27.2719 37.5728 29.4342 35.0968 33.1997ZM32.2324 27.8684C26.4793 29.6579 27.5716 37.4312 33.4704 36.0704C39.2721 34.7469 38.3739 25.9484 32.2324 27.8684Z" fill="#40F7FF" fill-opacity="0.44"/>
<path fill-rule="evenodd" clip-rule="evenodd" d="M54.9528 44.4402C60.0262 43.2472 60.4874 47.1803 55.9966 48.3919C51.166 49.6968 49.5153 45.7077 54.9528 44.4402ZM55.1956 42.9862C47.8161 43.9928 48.253 51.0389 55.7782 49.8272C62.6236 48.7275 62.5265 41.9983 55.1956 42.9862Z" fill="#40F7FF" fill-opacity="0.44"/>
<path fill-rule="evenodd" clip-rule="evenodd" d="M51.7764 33.4792C50.32 29.3969 57.3109 31 58.112 33.8147C59.1801 37.692 52.7231 36.1075 51.7764 33.4792ZM52.1891 29.9375C46.2904 32.0998 52.5775 38.8664 57.9178 37.2074C63.1853 35.567 57.3838 28.0175 52.1891 29.9375Z" fill="#40F7FF" fill-opacity="0.44"/>
<path fill-rule="evenodd" clip-rule="evenodd" d="M30.9728 50.8338C30.2446 46.826 36.7501 48.5597 37.0899 51.9523C37.4783 55.8483 31.4583 53.6113 30.9728 50.8338ZM31.3612 47.5717C25.8267 49.6595 31.8467 57.0599 37.0414 55.0094C41.6778 53.1826 36.7744 45.5212 31.3612 47.5717Z" fill="#40F7FF" fill-opacity="0.44"/>
<path fill-rule="evenodd" clip-rule="evenodd" d="M70.733 62.9503C72.8692 63.7705 75.0296 61.4963 75.3452 60.1915C72.8206 61.1422 75.4666 61.6268 71.4127 62.6893C70.7087 62.8757 71.0729 62.7453 70.7087 62.9503H70.733Z" fill="#40F7FF" fill-opacity="0.44"/>
<path fill-rule="evenodd" clip-rule="evenodd" d="M41.0711 67.1818C42.1392 66.7158 42.1635 66.4362 42.8675 65.8583C43.9598 64.9636 44.0326 65.5414 43.9841 64.4789C42.6004 64.8704 41.5324 65.821 41.0469 67.2005L41.0711 67.1818Z" fill="#40F7FF" fill-opacity="0.44"/>
<path fill-rule="evenodd" clip-rule="evenodd" d="M61.1428 26.3026C62.2587 25.3519 61.3127 23.9166 60.3909 23.1336C60.124 24.5504 60.5364 23.0777 60.779 25.6502C60.8518 26.3958 60.5849 25.8366 61.1428 26.3026Z" fill="#40F7FF" fill-opacity="0.44"/>
<path fill-rule="evenodd" clip-rule="evenodd" d="M35.5119 52.9588C35.342 52.2878 34.6137 51.6913 33.7398 50.8338C33.2058 50.3305 33.4728 50.4423 32.6475 50.1814C33.133 51.3371 34.0069 52.5115 35.5119 52.9588Z" fill="#40F7FF" fill-opacity="0.44"/>
<path fill-rule="evenodd" clip-rule="evenodd" d="M83.5768 29.5461C84.0137 28.8936 83.8681 28.7445 83.5283 28.0175C82.9942 26.955 83.0671 26.9736 81.8291 26.8431C81.8776 26.955 83.4312 29.3783 83.5768 29.5274V29.5461Z" fill="#40F7FF" fill-opacity="0.44"/>
<path fill-rule="evenodd" clip-rule="evenodd" d="M34.2729 21.9219C35.0497 21.4372 34.3943 21.9405 34.9041 21.4372C36.6276 19.7409 35.8993 20.8966 37.1616 19.9832C35.4867 19.3867 34.37 20.5052 34.2729 21.9219Z" fill="#40F7FF" fill-opacity="0.44"/>
<path fill-rule="evenodd" clip-rule="evenodd" d="M41.2644 42.2404L42.5994 39.5749C40.9003 39.8917 40.8032 41.1779 41.2644 42.2404Z" fill="#40F7FF" fill-opacity="0.44"/>
<path fill-rule="evenodd" clip-rule="evenodd" d="M47.3574 67.6851C47.7458 67.2191 48.8138 65.8583 49.0323 65.5041C47.9885 65.4854 48.3769 65.2058 47.6244 66.1938C47.5273 66.3429 47.2117 66.809 47.1632 66.9581C46.8234 68.3935 47.0661 67.2564 47.3574 67.6851Z" fill="#40F7FF" fill-opacity="0.44"/>
<path fill-rule="evenodd" clip-rule="evenodd" d="M60.3188 68.2258C61.4598 68.1139 60.9743 68.3004 61.8239 67.7225C62.4308 67.3124 62.5279 67.1632 62.7463 66.4921C61.4598 66.809 60.8043 67.4428 60.3188 68.2258Z" fill="#40F7FF" fill-opacity="0.44"/>
<path fill-rule="evenodd" clip-rule="evenodd" d="M89.3027 44.6638C90.4186 43.6758 90.0305 42.7064 88.6477 42.3149C89.0844 43.1911 89.1571 44.4401 89.3027 44.6638Z" fill="#40F7FF" fill-opacity="0.44"/>
<path fill-rule="evenodd" clip-rule="evenodd" d="M86.2449 53.1266C87.2158 53.052 87.0702 52.9961 87.4343 52.3996C87.4828 52.325 87.7256 51.8403 87.7499 51.7844C87.7984 50.9083 87.7741 51.4489 87.2886 50.9642L86.2449 53.108V53.1266Z" fill="#40F7FF" fill-opacity="0.44"/>
<path fill-rule="evenodd" clip-rule="evenodd" d="M52.5767 68.0206L53.9118 66.8649C54.4701 66.1938 54.4701 66.3802 55.0041 65.5786C53.5719 66.1192 52.9893 66.6039 52.5767 68.0019V68.0206Z" fill="#40F7FF" fill-opacity="0.44"/>
<path fill-rule="evenodd" clip-rule="evenodd" d="M31.5554 74.8059C31.2399 74.3958 30.7058 73.4452 30.1233 72.9792C29.4436 73.5197 29.9776 74.6381 31.5554 74.8059Z" fill="#40F7FF" fill-opacity="0.44"/>
<path fill-rule="evenodd" clip-rule="evenodd" d="M72.0927 45.6329C73.1115 44.9618 73.4268 43.8061 71.5105 43.7502C72.5293 44.85 71.7531 44.9432 72.0927 45.6329Z" fill="#40F7FF" fill-opacity="0.44"/>
<path fill-rule="evenodd" clip-rule="evenodd" d="M11.3586 61.7014C10.9462 59.6323 11.4799 60.8439 10.8976 59.8747C10.8734 59.8374 10.8006 59.7815 10.7521 59.7442C9.56336 61.6827 11.3343 61.7014 11.3343 61.7014H11.3586Z" fill="#40F7FF" fill-opacity="0.44"/>
<path fill-rule="evenodd" clip-rule="evenodd" d="M100.76 20.2629C101.658 20.6171 102.046 20.5239 103.6 20.5798C102.872 19.7596 101.998 19.7223 100.76 20.2629Z" fill="#40F7FF" fill-opacity="0.44"/>
<path fill-rule="evenodd" clip-rule="evenodd" d="M10.2909 23.3572C10.8974 22.7608 10.7518 22.1643 11.2127 21.2323C9.68443 21.8288 9.8785 22.127 10.2909 23.3572Z" fill="#40F7FF" fill-opacity="0.44"/>
<path fill-rule="evenodd" clip-rule="evenodd" d="M47.334 20.8221C47.8195 20.7103 48.2807 20.6171 48.6449 20.4493C49.8343 19.8901 49.1789 20.1884 49.6887 19.5732C48.2807 19.8715 47.7952 19.8528 47.334 20.8221Z" fill="#40F7FF" fill-opacity="0.44"/>
<path fill-rule="evenodd" clip-rule="evenodd" d="M31.7745 32.4728C32.4537 31.9136 31.92 32.9947 32.575 31.4476C32.6962 31.1493 32.7448 30.8697 32.7933 30.6087C32.5264 30.646 31.8715 29.9004 31.7502 32.4914L31.7745 32.4728Z" fill="#40F7FF" fill-opacity="0.44"/>
<path fill-rule="evenodd" clip-rule="evenodd" d="M29.0781 6.89759C30.1219 6.50613 29.2238 7.1772 30.0248 6.41293C30.8502 5.63002 30.1462 6.35701 30.656 5.46225C29.0781 5.87235 29.4665 5.53681 29.1024 6.89759H29.0781Z" fill="#40F7FF" fill-opacity="0.44"/>
<path fill-rule="evenodd" clip-rule="evenodd" d="M84.3021 75.3278C84.3749 76.4276 84.4962 75.887 84.666 76.0734C85.3211 75.3464 85.3211 75.16 84.666 74.3585C84.4234 74.5821 84.2293 74.1161 84.3021 75.3278Z" fill="#40F7FF" fill-opacity="0.44"/>
<path fill-rule="evenodd" clip-rule="evenodd" d="M69.5944 24.8858C69.6429 24.8485 69.8854 25.1095 70.1765 24.2147C70.7587 22.4625 70.3463 23.6928 69.8369 23.2267C69.5458 23.9351 69.2062 24.1774 69.6186 24.8672L69.5944 24.8858Z" fill="#40F7FF" fill-opacity="0.44"/>
<path fill-rule="evenodd" clip-rule="evenodd" d="M55.83 34.4672L54.981 32.8083C54.8597 32.8828 54.1077 32.3609 54.6656 33.6098C55.0295 34.4486 55.2235 34.169 55.83 34.4672Z" fill="#40F7FF" fill-opacity="0.44"/>
<path fill-rule="evenodd" clip-rule="evenodd" d="M4.94918 42.7809C4.53653 41.793 5.09482 42.93 4.3909 41.9794L3.54133 40.9355C3.39569 42.1844 3.68697 42.4454 4.94918 42.7809Z" fill="#40F7FF" fill-opacity="0.44"/>
<path fill-rule="evenodd" clip-rule="evenodd" d="M81.1709 6.0027C82.2147 6.48729 82.773 6.11453 83.4527 5.70449C82.6516 5.57402 81.5836 5.55538 81.1709 6.0027Z" fill="#40F7FF" fill-opacity="0.44"/>
</svg>
